<mxfile host="app.diagrams.net" agent="Mozilla/5.0 (X11; Ubuntu; Linux x86_64; rv:135.0) Gecko/20100101 Firefox/135.0" version="26.0.16">
  <diagram name="Page-1" id="FBiLe4G6YDGor90gaog_">
    <mxGraphModel dx="3191" dy="1988" grid="1" gridSize="10" guides="1" tooltips="1" connect="1" arrows="1" fold="1" page="1" pageScale="1" pageWidth="4681" pageHeight="3300" math="0" shadow="0">
      <root>
        <mxCell id="0" />
        <mxCell id="1" parent="0" />
        <mxCell id="baJgwccurqTm3MTbmxNC-11" style="edgeStyle=orthogonalEdgeStyle;rounded=0;orthogonalLoop=1;jettySize=auto;html=1;entryX=1;entryY=0.5;entryDx=0;entryDy=0;" edge="1" parent="1" source="baJgwccurqTm3MTbmxNC-1" target="baJgwccurqTm3MTbmxNC-10">
          <mxGeometry relative="1" as="geometry" />
        </mxCell>
        <mxCell id="baJgwccurqTm3MTbmxNC-1" value="PTB" style="rounded=0;whiteSpace=wrap;html=1;" vertex="1" parent="1">
          <mxGeometry x="1310" y="110" width="110" height="70" as="geometry" />
        </mxCell>
        <mxCell id="baJgwccurqTm3MTbmxNC-18" style="edgeStyle=orthogonalEdgeStyle;rounded=0;orthogonalLoop=1;jettySize=auto;html=1;entryX=0;entryY=0.5;entryDx=0;entryDy=0;" edge="1" parent="1" source="baJgwccurqTm3MTbmxNC-5" target="baJgwccurqTm3MTbmxNC-16">
          <mxGeometry relative="1" as="geometry">
            <Array as="points">
              <mxPoint x="770" y="910" />
            </Array>
          </mxGeometry>
        </mxCell>
        <mxCell id="baJgwccurqTm3MTbmxNC-31" style="edgeStyle=orthogonalEdgeStyle;rounded=0;orthogonalLoop=1;jettySize=auto;html=1;entryX=0;entryY=0.5;entryDx=0;entryDy=0;" edge="1" parent="1" source="baJgwccurqTm3MTbmxNC-5" target="baJgwccurqTm3MTbmxNC-29">
          <mxGeometry relative="1" as="geometry">
            <Array as="points">
              <mxPoint x="765" y="985" />
            </Array>
          </mxGeometry>
        </mxCell>
        <mxCell id="baJgwccurqTm3MTbmxNC-5" value="OFC" style="rounded=0;whiteSpace=wrap;html=1;" vertex="1" parent="1">
          <mxGeometry x="720" y="800" width="90" height="50" as="geometry" />
        </mxCell>
        <mxCell id="baJgwccurqTm3MTbmxNC-25" style="edgeStyle=orthogonalEdgeStyle;rounded=0;orthogonalLoop=1;jettySize=auto;html=1;entryX=0;entryY=0.5;entryDx=0;entryDy=0;" edge="1" parent="1" source="baJgwccurqTm3MTbmxNC-6" target="baJgwccurqTm3MTbmxNC-23">
          <mxGeometry relative="1" as="geometry">
            <Array as="points">
              <mxPoint x="995" y="635" />
            </Array>
          </mxGeometry>
        </mxCell>
        <mxCell id="baJgwccurqTm3MTbmxNC-6" value="&lt;div&gt;UJ cav&lt;/div&gt;&lt;div&gt;1.5um&lt;/div&gt;" style="rounded=0;whiteSpace=wrap;html=1;" vertex="1" parent="1">
          <mxGeometry x="947.5" y="480" width="95" height="50" as="geometry" />
        </mxCell>
        <mxCell id="baJgwccurqTm3MTbmxNC-17" style="edgeStyle=orthogonalEdgeStyle;rounded=0;orthogonalLoop=1;jettySize=auto;html=1;entryX=0;entryY=0.5;entryDx=0;entryDy=0;" edge="1" parent="1" source="baJgwccurqTm3MTbmxNC-7" target="baJgwccurqTm3MTbmxNC-16">
          <mxGeometry relative="1" as="geometry">
            <Array as="points">
              <mxPoint x="1000" y="910" />
            </Array>
          </mxGeometry>
        </mxCell>
        <mxCell id="baJgwccurqTm3MTbmxNC-26" style="edgeStyle=orthogonalEdgeStyle;rounded=0;orthogonalLoop=1;jettySize=auto;html=1;entryX=0;entryY=0.5;entryDx=0;entryDy=0;" edge="1" parent="1" source="baJgwccurqTm3MTbmxNC-7" target="baJgwccurqTm3MTbmxNC-23">
          <mxGeometry relative="1" as="geometry">
            <Array as="points">
              <mxPoint x="1010" y="635" />
            </Array>
          </mxGeometry>
        </mxCell>
        <mxCell id="baJgwccurqTm3MTbmxNC-7" value="&lt;div&gt;UMK cav&lt;/div&gt;1.5um " style="rounded=0;whiteSpace=wrap;html=1;" vertex="1" parent="1">
          <mxGeometry x="950" y="700" width="90" height="50" as="geometry" />
        </mxCell>
        <mxCell id="baJgwccurqTm3MTbmxNC-10" value="PCSS" style="rounded=0;whiteSpace=wrap;html=1;" vertex="1" parent="1">
          <mxGeometry x="940" y="115" width="120" height="60" as="geometry" />
        </mxCell>
        <mxCell id="baJgwccurqTm3MTbmxNC-32" style="edgeStyle=orthogonalEdgeStyle;rounded=0;orthogonalLoop=1;jettySize=auto;html=1;entryX=0;entryY=0.5;entryDx=0;entryDy=0;" edge="1" parent="1" source="baJgwccurqTm3MTbmxNC-14" target="baJgwccurqTm3MTbmxNC-29">
          <mxGeometry relative="1" as="geometry">
            <Array as="points">
              <mxPoint x="1010" y="985" />
            </Array>
          </mxGeometry>
        </mxCell>
        <mxCell id="baJgwccurqTm3MTbmxNC-40" style="edgeStyle=orthogonalEdgeStyle;rounded=0;orthogonalLoop=1;jettySize=auto;html=1;entryX=1;entryY=0.5;entryDx=0;entryDy=0;" edge="1" parent="1" source="baJgwccurqTm3MTbmxNC-14" target="baJgwccurqTm3MTbmxNC-38">
          <mxGeometry relative="1" as="geometry">
            <Array as="points">
              <mxPoint x="1010" y="1170" />
            </Array>
          </mxGeometry>
        </mxCell>
        <mxCell id="baJgwccurqTm3MTbmxNC-14" value="&lt;div&gt;698 cav&lt;/div&gt;" style="rounded=0;whiteSpace=wrap;html=1;" vertex="1" parent="1">
          <mxGeometry x="970" y="1090" width="80" height="40" as="geometry" />
        </mxCell>
        <mxCell id="baJgwccurqTm3MTbmxNC-20" style="edgeStyle=orthogonalEdgeStyle;rounded=0;orthogonalLoop=1;jettySize=auto;html=1;entryX=0;entryY=0.5;entryDx=0;entryDy=0;" edge="1" parent="1" source="baJgwccurqTm3MTbmxNC-16" target="baJgwccurqTm3MTbmxNC-19">
          <mxGeometry relative="1" as="geometry" />
        </mxCell>
        <mxCell id="baJgwccurqTm3MTbmxNC-16" value="PD" style="rounded=0;whiteSpace=wrap;html=1;" vertex="1" parent="1">
          <mxGeometry x="1070" y="900" width="20" height="20" as="geometry" />
        </mxCell>
        <mxCell id="baJgwccurqTm3MTbmxNC-19" value="counter" style="rounded=0;whiteSpace=wrap;html=1;" vertex="1" parent="1">
          <mxGeometry x="1130" y="895" width="60" height="30" as="geometry" />
        </mxCell>
        <mxCell id="baJgwccurqTm3MTbmxNC-21" value="NC" style="rounded=0;whiteSpace=wrap;html=1;" vertex="1" parent="1">
          <mxGeometry x="950" y="770" width="50" height="30" as="geometry" />
        </mxCell>
        <mxCell id="baJgwccurqTm3MTbmxNC-22" style="edgeStyle=orthogonalEdgeStyle;rounded=0;orthogonalLoop=1;jettySize=auto;html=1;entryX=0;entryY=0.5;entryDx=0;entryDy=0;" edge="1" source="baJgwccurqTm3MTbmxNC-23" target="baJgwccurqTm3MTbmxNC-24" parent="1">
          <mxGeometry relative="1" as="geometry" />
        </mxCell>
        <mxCell id="baJgwccurqTm3MTbmxNC-23" value="PD" style="rounded=0;whiteSpace=wrap;html=1;" vertex="1" parent="1">
          <mxGeometry x="1090" y="625" width="20" height="20" as="geometry" />
        </mxCell>
        <mxCell id="baJgwccurqTm3MTbmxNC-24" value="counter" style="rounded=0;whiteSpace=wrap;html=1;" vertex="1" parent="1">
          <mxGeometry x="1150" y="620" width="60" height="30" as="geometry" />
        </mxCell>
        <mxCell id="baJgwccurqTm3MTbmxNC-28" style="edgeStyle=orthogonalEdgeStyle;rounded=0;orthogonalLoop=1;jettySize=auto;html=1;entryX=0;entryY=0.5;entryDx=0;entryDy=0;" edge="1" source="baJgwccurqTm3MTbmxNC-29" target="baJgwccurqTm3MTbmxNC-30" parent="1">
          <mxGeometry relative="1" as="geometry" />
        </mxCell>
        <mxCell id="baJgwccurqTm3MTbmxNC-29" value="PD" style="rounded=0;whiteSpace=wrap;html=1;" vertex="1" parent="1">
          <mxGeometry x="1070" y="975" width="20" height="20" as="geometry" />
        </mxCell>
        <mxCell id="baJgwccurqTm3MTbmxNC-30" value="counter" style="rounded=0;whiteSpace=wrap;html=1;" vertex="1" parent="1">
          <mxGeometry x="1130" y="970" width="60" height="30" as="geometry" />
        </mxCell>
        <mxCell id="baJgwccurqTm3MTbmxNC-33" value="NC" style="rounded=0;whiteSpace=wrap;html=1;" vertex="1" parent="1">
          <mxGeometry x="1010" y="1050" width="50" height="30" as="geometry" />
        </mxCell>
        <mxCell id="baJgwccurqTm3MTbmxNC-34" value="" style="curved=1;endArrow=classic;html=1;rounded=0;exitX=0;exitY=0.5;exitDx=0;exitDy=0;entryX=0.104;entryY=-0.024;entryDx=0;entryDy=0;entryPerimeter=0;" edge="1" parent="1" source="baJgwccurqTm3MTbmxNC-10" target="baJgwccurqTm3MTbmxNC-35">
          <mxGeometry width="50" height="50" relative="1" as="geometry">
            <mxPoint x="780" y="640" as="sourcePoint" />
            <mxPoint x="570" y="370" as="targetPoint" />
            <Array as="points">
              <mxPoint x="650" y="150" />
              <mxPoint x="660" y="145" />
              <mxPoint x="620" y="150" />
              <mxPoint x="610" y="320" />
              <mxPoint x="510" y="160" />
            </Array>
          </mxGeometry>
        </mxCell>
        <mxCell id="baJgwccurqTm3MTbmxNC-35" value="&lt;div&gt;AGH box&lt;/div&gt;" style="rounded=0;whiteSpace=wrap;html=1;" vertex="1" parent="1">
          <mxGeometry x="570" y="450" width="100" height="50" as="geometry" />
        </mxCell>
        <mxCell id="baJgwccurqTm3MTbmxNC-36" value="88Sr" style="rounded=0;whiteSpace=wrap;html=1;" vertex="1" parent="1">
          <mxGeometry x="630" y="1140" width="80" height="60" as="geometry" />
        </mxCell>
        <mxCell id="baJgwccurqTm3MTbmxNC-39" style="edgeStyle=orthogonalEdgeStyle;rounded=0;orthogonalLoop=1;jettySize=auto;html=1;entryX=1;entryY=0.5;entryDx=0;entryDy=0;" edge="1" parent="1" source="baJgwccurqTm3MTbmxNC-38" target="baJgwccurqTm3MTbmxNC-36">
          <mxGeometry relative="1" as="geometry" />
        </mxCell>
        <mxCell id="baJgwccurqTm3MTbmxNC-38" value="&lt;div&gt;AOM&lt;/div&gt;&lt;div&gt;correction&lt;/div&gt;" style="rounded=0;whiteSpace=wrap;html=1;" vertex="1" parent="1">
          <mxGeometry x="750" y="1150" width="60" height="40" as="geometry" />
        </mxCell>
        <mxCell id="baJgwccurqTm3MTbmxNC-42" style="edgeStyle=orthogonalEdgeStyle;rounded=0;orthogonalLoop=1;jettySize=auto;html=1;entryX=0.5;entryY=1;entryDx=0;entryDy=0;" edge="1" parent="1" source="baJgwccurqTm3MTbmxNC-41" target="baJgwccurqTm3MTbmxNC-38">
          <mxGeometry relative="1" as="geometry" />
        </mxCell>
        <mxCell id="baJgwccurqTm3MTbmxNC-45" value="" style="edgeStyle=orthogonalEdgeStyle;rounded=0;orthogonalLoop=1;jettySize=auto;html=1;" edge="1" parent="1" source="baJgwccurqTm3MTbmxNC-41" target="baJgwccurqTm3MTbmxNC-44">
          <mxGeometry relative="1" as="geometry" />
        </mxCell>
        <mxCell id="baJgwccurqTm3MTbmxNC-41" value="" style="fontColor=#0066CC;verticalAlign=top;verticalLabelPosition=bottom;labelPosition=center;align=center;html=1;outlineConnect=0;fillColor=#CCCCCC;strokeColor=#6881B3;gradientColor=none;gradientDirection=north;strokeWidth=2;shape=mxgraph.networks.pc;" vertex="1" parent="1">
          <mxGeometry x="820" y="1250" width="60" height="50" as="geometry" />
        </mxCell>
        <mxCell id="baJgwccurqTm3MTbmxNC-44" value="record to DB" style="rounded=0;whiteSpace=wrap;html=1;" vertex="1" parent="1">
          <mxGeometry x="660" y="1250" width="80" height="20" as="geometry" />
        </mxCell>
      </root>
    </mxGraphModel>
  </diagram>
</mxfile>
